<svg xmlns="http://www.w3.org/2000/svg" viewBox="0 0 520 220" width="520" height="220" role="img" aria-label="kass">
<defs><filter id="g1" x="-40%" y="-60%" width="180%" height="220%">
  <feGaussianBlur in="SourceAlpha" stdDeviation="14" result="b1"/>
  <feGaussianBlur in="SourceAlpha" stdDeviation="4" result="b2"/>
  <feFlood flood-color="#ff2bd6" flood-opacity=".75"/><feComposite in2="b1" operator="in" result="g1"/>
  <feFlood flood-color="#ff2bd6"/><feComposite in2="b2" operator="in" result="g2"/>
  <feMerge><feMergeNode in="g1"/><feMergeNode in="g2"/><feMergeNode in="SourceGraphic"/></feMerge>
</filter></defs>
<rect width="520" height="220" rx="28" fill="#0a0a12"/>
<g transform="translate(114,52)"><g class="" filter="url(#g1)" fill="none" stroke-linecap="round" stroke-linejoin="round">
  <path d="M22,14 V104 M64,50 L25,82 M38,72 L66,104 M144,50 V104 M144,77 A28,28 0 1 1 143.9,76.5 M214,56 C206,46 172,44 172,62 C172,80 214,72 214,90 C214,108 180,110 168,98 M276,56 C268,46 234,44 234,62 C234,80 276,72 276,90 C276,108 242,110 230,98" stroke="#ff2bd6" stroke-width="9"/><path d="M22,14 V104 M64,50 L25,82 M38,72 L66,104 M144,50 V104 M144,77 A28,28 0 1 1 143.9,76.5 M214,56 C206,46 172,44 172,62 C172,80 214,72 214,90 C214,108 180,110 168,98 M276,56 C268,46 234,44 234,62 C234,80 276,72 276,90 C276,108 242,110 230,98" stroke="#ffe3f9" stroke-width="3.5"/></g></g>
</svg>
